<?xml version="1.0" encoding="iso-8859-1"?>
<!-- Generator: Adobe Illustrator 16.0.0, SVG Export Plug-In . SVG Version: 6.00 Build 0)  -->
<!DOCTYPE svg PUBLIC "-//W3C//DTD SVG 1.1//EN" "http://www.w3.org/Graphics/SVG/1.1/DTD/svg11.dtd">
<svg version="1.1" id="Capa_1" xmlns="http://www.w3.org/2000/svg" xmlns:xlink="http://www.w3.org/1999/xlink" x="0px" y="0px"
	 width="740.208px" height="740.207px" viewBox="0 0 740.208 740.207" style="enable-background:new 0 0 740.208 740.207;"
	 xml:space="preserve">
<g>
	<g>
		<path d="M602.36,282.769l-0.025-0.053c0.03,0.007,0.062,0.015,0.096,0.019C602.408,282.749,602.38,282.755,602.36,282.769z"/>
		<path d="M593.037,267.339c-0.003-0.001-0.005-0.001-0.006-0.001c0.001-0.016,0.006-0.032,0.006-0.047V267.339z"/>
	</g>
	<g>
		<path d="M168.023,372.291c1.534-0.08,2.981-0.066,4.441-0.066c4.637,0.303,9.798,1.42,14.556,4.725
			c1.897,1.318,3.62,2.752,6.096,2.975c1.043,0.094,7.935,0.201,8.035-8.035l0.392-101.55c-0.89-16.823,13.922-24.259,30.731-25.14
			c16.829-0.861,29.299,5.131,30.174,21.951c0,0,0,1.457,0,2.755c0,1.417,0,1.955,0,1.962c0-0.007,0-0.545,0-1.962l0.64-239.398
			C263.088,13.657,276.733,0,293.592,0c16.836,0,30.503,13.657,30.503,30.507l1.286,237.066
			c0.888-13.721,14.871-17.785,32.629-17.785c18.054,0,32.689,4.175,32.689,22.22l-0.006,12.422
			c3.586-12.287,17.019-16.796,32.429-15.796c14.959,0.969,24.938,8.832,24.938,26.907l0.444,158.148
			c0,2.936,0.518,128.596-45.471,163.062v80.898c0,23.498-14.178,42.557-37.696,42.557c0,0-85.871-0.229-103.535-0.229
			c-21.453-0.74-36.674-18.17-36.674-39.637v-79.041c-21.885-5.49-83.409-146.414-83.409-146.414l-3.902-80.225
			C136.928,377.836,151.207,373.16,168.023,372.291z"/>
	</g>
</g>
<g>
</g>
<g>
</g>
<g>
</g>
<g>
</g>
<g>
</g>
<g>
</g>
<g>
</g>
<g>
</g>
<g>
</g>
<g>
</g>
<g>
</g>
<g>
</g>
<g>
</g>
<g>
</g>
<g>
</g>
</svg>
